<mxfile host="app.diagrams.net" agent="Mozilla/5.0 (Windows NT 10.0; Win64; x64) AppleWebKit/537.36 (KHTML, like Gecko) Chrome/129.0.0.0 Safari/537.36" version="24.7.17">
  <diagram name="Page-1" id="O-rrH85xTtFy23UHvOR7">
    <mxGraphModel dx="1567" dy="541" grid="1" gridSize="10" guides="1" tooltips="1" connect="1" arrows="1" fold="1" page="1" pageScale="1" pageWidth="850" pageHeight="1100" math="0" shadow="0">
      <root>
        <mxCell id="0" />
        <mxCell id="1" parent="0" />
        <mxCell id="Pto8F3Ej_QC1XyT_kyy--21" style="edgeStyle=orthogonalEdgeStyle;rounded=0;orthogonalLoop=1;jettySize=auto;html=1;exitX=0.5;exitY=0.5;exitDx=0;exitDy=0;exitPerimeter=0;entryX=0;entryY=0.5;entryDx=0;entryDy=0;" edge="1" parent="1" source="Pto8F3Ej_QC1XyT_kyy--1" target="Pto8F3Ej_QC1XyT_kyy--13">
          <mxGeometry relative="1" as="geometry">
            <Array as="points">
              <mxPoint x="53" y="380" />
            </Array>
          </mxGeometry>
        </mxCell>
        <mxCell id="Pto8F3Ej_QC1XyT_kyy--1" value="Visitor" style="shape=umlActor;verticalLabelPosition=bottom;verticalAlign=top;html=1;outlineConnect=0;" vertex="1" parent="1">
          <mxGeometry x="40" y="350" width="20" height="30" as="geometry" />
        </mxCell>
        <mxCell id="Pto8F3Ej_QC1XyT_kyy--23" style="edgeStyle=orthogonalEdgeStyle;rounded=0;orthogonalLoop=1;jettySize=auto;html=1;exitX=1;exitY=0.3333333333333333;exitDx=0;exitDy=0;exitPerimeter=0;entryX=0;entryY=0.5;entryDx=0;entryDy=0;" edge="1" parent="1" source="Pto8F3Ej_QC1XyT_kyy--10" target="Pto8F3Ej_QC1XyT_kyy--17">
          <mxGeometry relative="1" as="geometry">
            <Array as="points">
              <mxPoint x="65" y="60" />
            </Array>
          </mxGeometry>
        </mxCell>
        <mxCell id="Pto8F3Ej_QC1XyT_kyy--10" value="Registered User&lt;div&gt;&lt;br&gt;&lt;/div&gt;" style="shape=umlActor;verticalLabelPosition=bottom;verticalAlign=top;html=1;outlineConnect=0;" vertex="1" parent="1">
          <mxGeometry x="40" y="40" width="20" height="30" as="geometry" />
        </mxCell>
        <mxCell id="Pto8F3Ej_QC1XyT_kyy--22" style="edgeStyle=orthogonalEdgeStyle;rounded=0;orthogonalLoop=1;jettySize=auto;html=1;exitX=0.5;exitY=0;exitDx=0;exitDy=0;entryX=0.5;entryY=1;entryDx=0;entryDy=0;" edge="1" parent="1" source="Pto8F3Ej_QC1XyT_kyy--13" target="Pto8F3Ej_QC1XyT_kyy--14">
          <mxGeometry relative="1" as="geometry" />
        </mxCell>
        <mxCell id="Pto8F3Ej_QC1XyT_kyy--13" value="Registration" style="ellipse;whiteSpace=wrap;html=1;" vertex="1" parent="1">
          <mxGeometry x="170" y="360" width="80" height="40" as="geometry" />
        </mxCell>
        <mxCell id="Pto8F3Ej_QC1XyT_kyy--25" style="edgeStyle=orthogonalEdgeStyle;rounded=0;orthogonalLoop=1;jettySize=auto;html=1;exitX=1;exitY=0.5;exitDx=0;exitDy=0;entryX=0;entryY=0.5;entryDx=0;entryDy=0;" edge="1" parent="1" source="Pto8F3Ej_QC1XyT_kyy--14" target="Pto8F3Ej_QC1XyT_kyy--16">
          <mxGeometry relative="1" as="geometry" />
        </mxCell>
        <mxCell id="Pto8F3Ej_QC1XyT_kyy--28" value="" style="edgeStyle=orthogonalEdgeStyle;rounded=0;orthogonalLoop=1;jettySize=auto;html=1;" edge="1" parent="1" source="Pto8F3Ej_QC1XyT_kyy--14" target="Pto8F3Ej_QC1XyT_kyy--27">
          <mxGeometry relative="1" as="geometry" />
        </mxCell>
        <mxCell id="Pto8F3Ej_QC1XyT_kyy--14" value="New game" style="ellipse;whiteSpace=wrap;html=1;" vertex="1" parent="1">
          <mxGeometry x="170" y="190" width="80" height="40" as="geometry" />
        </mxCell>
        <mxCell id="Pto8F3Ej_QC1XyT_kyy--26" style="edgeStyle=orthogonalEdgeStyle;rounded=0;orthogonalLoop=1;jettySize=auto;html=1;exitX=0;exitY=0.5;exitDx=0;exitDy=0;entryX=0;entryY=0.5;entryDx=0;entryDy=0;" edge="1" parent="1" source="Pto8F3Ej_QC1XyT_kyy--16" target="Pto8F3Ej_QC1XyT_kyy--20">
          <mxGeometry relative="1" as="geometry" />
        </mxCell>
        <mxCell id="Pto8F3Ej_QC1XyT_kyy--16" value="Offline/Online" style="ellipse;whiteSpace=wrap;html=1;" vertex="1" parent="1">
          <mxGeometry x="320" y="270" width="80" height="40" as="geometry" />
        </mxCell>
        <mxCell id="Pto8F3Ej_QC1XyT_kyy--42" value="" style="edgeStyle=orthogonalEdgeStyle;rounded=0;orthogonalLoop=1;jettySize=auto;html=1;" edge="1" parent="1" source="Pto8F3Ej_QC1XyT_kyy--17" target="Pto8F3Ej_QC1XyT_kyy--41">
          <mxGeometry relative="1" as="geometry" />
        </mxCell>
        <mxCell id="Pto8F3Ej_QC1XyT_kyy--17" value="Continue game" style="ellipse;whiteSpace=wrap;html=1;" vertex="1" parent="1">
          <mxGeometry x="320" y="40" width="80" height="40" as="geometry" />
        </mxCell>
        <mxCell id="Pto8F3Ej_QC1XyT_kyy--20" value="Select Difficulty" style="ellipse;whiteSpace=wrap;html=1;" vertex="1" parent="1">
          <mxGeometry x="320" y="360" width="80" height="40" as="geometry" />
        </mxCell>
        <mxCell id="Pto8F3Ej_QC1XyT_kyy--24" style="edgeStyle=orthogonalEdgeStyle;rounded=0;orthogonalLoop=1;jettySize=auto;html=1;exitX=1;exitY=1;exitDx=0;exitDy=0;exitPerimeter=0;entryX=0.013;entryY=0.675;entryDx=0;entryDy=0;entryPerimeter=0;" edge="1" parent="1" source="Pto8F3Ej_QC1XyT_kyy--10" target="Pto8F3Ej_QC1XyT_kyy--14">
          <mxGeometry relative="1" as="geometry">
            <Array as="points">
              <mxPoint x="65" y="210" />
              <mxPoint x="171" y="210" />
            </Array>
          </mxGeometry>
        </mxCell>
        <mxCell id="Pto8F3Ej_QC1XyT_kyy--30" value="" style="edgeStyle=orthogonalEdgeStyle;rounded=0;orthogonalLoop=1;jettySize=auto;html=1;" edge="1" parent="1" source="Pto8F3Ej_QC1XyT_kyy--27" target="Pto8F3Ej_QC1XyT_kyy--29">
          <mxGeometry relative="1" as="geometry" />
        </mxCell>
        <mxCell id="Pto8F3Ej_QC1XyT_kyy--37" style="edgeStyle=orthogonalEdgeStyle;rounded=0;orthogonalLoop=1;jettySize=auto;html=1;exitX=0.5;exitY=1;exitDx=0;exitDy=0;entryX=0.5;entryY=0;entryDx=0;entryDy=0;" edge="1" parent="1" source="Pto8F3Ej_QC1XyT_kyy--27" target="Pto8F3Ej_QC1XyT_kyy--35">
          <mxGeometry relative="1" as="geometry" />
        </mxCell>
        <mxCell id="Pto8F3Ej_QC1XyT_kyy--27" value="Input Number" style="ellipse;whiteSpace=wrap;html=1;" vertex="1" parent="1">
          <mxGeometry x="425" y="140" width="80" height="40" as="geometry" />
        </mxCell>
        <mxCell id="Pto8F3Ej_QC1XyT_kyy--32" value="" style="edgeStyle=orthogonalEdgeStyle;rounded=0;orthogonalLoop=1;jettySize=auto;html=1;" edge="1" parent="1" source="Pto8F3Ej_QC1XyT_kyy--29" target="Pto8F3Ej_QC1XyT_kyy--31">
          <mxGeometry relative="1" as="geometry" />
        </mxCell>
        <mxCell id="Pto8F3Ej_QC1XyT_kyy--34" value="" style="edgeStyle=orthogonalEdgeStyle;rounded=0;orthogonalLoop=1;jettySize=auto;html=1;" edge="1" parent="1" source="Pto8F3Ej_QC1XyT_kyy--29" target="Pto8F3Ej_QC1XyT_kyy--33">
          <mxGeometry relative="1" as="geometry" />
        </mxCell>
        <mxCell id="Pto8F3Ej_QC1XyT_kyy--29" value="Check win/loss" style="ellipse;whiteSpace=wrap;html=1;" vertex="1" parent="1">
          <mxGeometry x="585" y="140" width="80" height="40" as="geometry" />
        </mxCell>
        <mxCell id="Pto8F3Ej_QC1XyT_kyy--36" value="" style="edgeStyle=orthogonalEdgeStyle;rounded=0;orthogonalLoop=1;jettySize=auto;html=1;" edge="1" parent="1" source="Pto8F3Ej_QC1XyT_kyy--31" target="Pto8F3Ej_QC1XyT_kyy--35">
          <mxGeometry relative="1" as="geometry" />
        </mxCell>
        <mxCell id="Pto8F3Ej_QC1XyT_kyy--40" style="edgeStyle=orthogonalEdgeStyle;rounded=0;orthogonalLoop=1;jettySize=auto;html=1;exitX=1;exitY=0.5;exitDx=0;exitDy=0;entryX=0.5;entryY=1;entryDx=0;entryDy=0;" edge="1" parent="1" source="Pto8F3Ej_QC1XyT_kyy--31" target="Pto8F3Ej_QC1XyT_kyy--38">
          <mxGeometry relative="1" as="geometry" />
        </mxCell>
        <mxCell id="Pto8F3Ej_QC1XyT_kyy--31" value="Admin" style="ellipse;whiteSpace=wrap;html=1;" vertex="1" parent="1">
          <mxGeometry x="585" y="420" width="80" height="40" as="geometry" />
        </mxCell>
        <mxCell id="Pto8F3Ej_QC1XyT_kyy--39" value="" style="edgeStyle=orthogonalEdgeStyle;rounded=0;orthogonalLoop=1;jettySize=auto;html=1;" edge="1" parent="1" source="Pto8F3Ej_QC1XyT_kyy--33" target="Pto8F3Ej_QC1XyT_kyy--38">
          <mxGeometry relative="1" as="geometry" />
        </mxCell>
        <mxCell id="Pto8F3Ej_QC1XyT_kyy--33" value="End game" style="ellipse;whiteSpace=wrap;html=1;" vertex="1" parent="1">
          <mxGeometry x="710" y="70" width="80" height="40" as="geometry" />
        </mxCell>
        <mxCell id="Pto8F3Ej_QC1XyT_kyy--35" value="Check move" style="ellipse;whiteSpace=wrap;html=1;" vertex="1" parent="1">
          <mxGeometry x="425" y="440" width="80" height="40" as="geometry" />
        </mxCell>
        <mxCell id="Pto8F3Ej_QC1XyT_kyy--38" value="Save Result and Update Rank" style="ellipse;whiteSpace=wrap;html=1;" vertex="1" parent="1">
          <mxGeometry x="920" y="60" width="90" height="60" as="geometry" />
        </mxCell>
        <mxCell id="Pto8F3Ej_QC1XyT_kyy--43" style="edgeStyle=orthogonalEdgeStyle;rounded=0;orthogonalLoop=1;jettySize=auto;html=1;exitX=0.5;exitY=1;exitDx=0;exitDy=0;" edge="1" parent="1" source="Pto8F3Ej_QC1XyT_kyy--41">
          <mxGeometry relative="1" as="geometry">
            <mxPoint x="580" y="440" as="targetPoint" />
            <Array as="points">
              <mxPoint x="520" y="440" />
            </Array>
          </mxGeometry>
        </mxCell>
        <mxCell id="Pto8F3Ej_QC1XyT_kyy--41" value="Who&#39;s Move?" style="ellipse;whiteSpace=wrap;html=1;" vertex="1" parent="1">
          <mxGeometry x="480" y="40" width="80" height="40" as="geometry" />
        </mxCell>
        <mxCell id="Pto8F3Ej_QC1XyT_kyy--45" style="edgeStyle=orthogonalEdgeStyle;rounded=0;orthogonalLoop=1;jettySize=auto;html=1;exitX=1;exitY=0.5;exitDx=0;exitDy=0;entryX=0.688;entryY=1;entryDx=0;entryDy=0;entryPerimeter=0;" edge="1" parent="1" source="Pto8F3Ej_QC1XyT_kyy--16" target="Pto8F3Ej_QC1XyT_kyy--27">
          <mxGeometry relative="1" as="geometry" />
        </mxCell>
      </root>
    </mxGraphModel>
  </diagram>
</mxfile>
